<svg id="Layer_1" enable-background="new 0 0 512.491 512.491" height="512" viewBox="0 0 512.491 512.491" width="512" xmlns="http://www.w3.org/2000/svg"><g><g fill="#ffb69e"><path d="m281.181 420.839 3.519-19.76-13.083-8.479-21.944 3.042-3.974 22.315c-.392 2.201-.364 4.456.083 6.646l15.029 73.706c1.711 8.395 9.096 14.182 17.343 14.182 1.173 0 2.364-.117 3.559-.361 9.589-1.955 15.776-11.313 13.821-20.901z"/><path d="m417.47 175.804c-7.243-6.577-18.449-6.039-25.029 1.207l-44.282 48.769c-1.393 1.534-2.505 3.3-3.288 5.218l-6.258 15.34 13.467 17.106 19.285-3.572 5.136-12.588 42.178-46.451c6.576-7.245 6.036-18.451-1.209-25.029z"/><path d="m299.334 350.434 2.995 2.718 25.724-15.857-1.435-4.454c-3.294-10.224-15.204-14.775-24.476-9.352-9.795 5.728-11.211 19.319-2.808 26.945z"/></g><path d="m47.431 10.319c-4.54-4.436-11.428-5.425-17.033-2.445l-20.088 10.681c-5.604 2.98-8.637 9.243-7.498 15.488l4 21.936 56.568-30.077z" fill="#00558c"/><g><path d="m125.344 134.701-77.413-96.797c-2.069-2.588-1.649-6.364.938-8.434 2.588-2.069 6.364-1.648 8.434.938l77.413 96.797c2.069 2.588 1.649 6.364-.938 8.434-2.577 2.06-6.355 1.661-8.434-.938z" fill="#fff5aa"/></g><g><path d="m70.795 234.522-56.458-180.736c-1.988-5.163-.225-8.528 2.938-9.516 3.16-.987 6.528.775 7.516 3.938l56.459 180.736c.988 3.163-.775 6.528-3.938 7.516-3.345 1.046-6.745-1.281-6.517-1.938z" fill="#fff5aa"/></g><g id="XMLID_6265_"><g><path d="m268.347 231.096c-1.311 0-2.64-.118-3.975-.363-11.879-2.181-19.742-13.579-17.561-25.459l13.992-76.216-107.973-8.387c-12.042-.936-21.046-11.456-20.111-23.498.936-12.043 11.459-21.052 23.498-20.111l132.172 10.266c6.177.48 11.86 3.557 15.639 8.467 3.778 4.91 5.297 11.192 4.179 17.286l-18.374 100.089c-1.937 10.546-11.135 17.926-21.486 17.926z" fill="#414b82"/></g></g><g id="XMLID_6263_"><g><path d="m187.387 234.17-29.386-91.795c-1.073-3.355-1.32-6.92-.719-10.391l19.698-113.84c2.06-11.901 13.375-19.879 25.279-17.821 11.901 2.06 19.88 13.377 17.821 25.279l-18.784 108.557 28.041 87.676-14.168 27.493z" fill="#5f6e9b"/></g></g><g><path d="m338.612 246.338-10.259 25.145-39.021-62.679c-9.441-15.165-29.388-19.805-44.553-10.364l-57.393 35.73 70.791 113.711-8.505 47.76 35.027 5.437 7.413-41.63 10.216-6.297c-1.456-2.353-2.345-5.109-2.476-8.033-.37-8.249 7.285-15.275 15.275-15.275 5.627 0 10.28 3.031 12.925 7.451l6.078-3.747c6.497-4.005 11.544-9.982 14.403-17.058l22.872-56.6z" fill="#64afff"/></g><ellipse cx="337.79" cy="394.028" fill="#ffb69e" rx="39.109" ry="39.109" transform="matrix(.114 -.994 .994 .114 -92.108 684.8)"/><path d="m502.182 18.633-20.089-10.681c-5.604-2.98-12.493-1.991-17.033 2.445l-15.948 15.583 56.568 30.077 4-21.936c1.138-6.245-1.894-12.509-7.498-15.488z" fill="#00558c"/><g><path d="m378.714 135.717c-2.588-2.07-3.009-5.846-.938-8.434l77.413-96.797c2.067-2.588 5.846-3.009 8.433-.938 2.588 2.07 3.009 5.846.938 8.434l-77.413 96.797c-2.062 2.578-5.84 3.013-8.433.938z" fill="#fff5aa"/></g><g><path d="m435.18 238.537c-3.163-.988-4.926-4.353-3.938-7.516l56.458-180.736c.989-3.163 4.353-4.926 7.517-3.938 3.163.988 4.926 4.353 3.938 7.516l-56.458 180.737c-.988 3.158-4.35 4.926-7.517 3.937z" fill="#fff5aa"/></g><g fill="#ffda52"><path d="m394.368 121.844c-1.852 3.125-4.464 5.737-7.589 7.589-1.631.967-1.631 3.389 0 4.356 3.125 1.852 5.737 4.464 7.589 7.589.967 1.631 3.389 1.631 4.356 0 1.852-3.125 4.464-5.737 7.589-7.589 1.631-.967 1.631-3.389 0-4.356-3.125-1.852-5.737-4.464-7.589-7.589-.967-1.631-3.389-1.631-4.356 0z"/><path d="m438.457 102.238c-1.402 2.365-3.378 4.342-5.743 5.743-1.235.732-1.235 2.565 0 3.297 2.365 1.402 4.342 3.378 5.743 5.743.732 1.235 2.565 1.235 3.297 0 1.402-2.365 3.378-4.342 5.743-5.743 1.235-.732 1.235-2.565 0-3.297-2.365-1.402-4.342-3.378-5.743-5.743-.732-1.234-2.565-1.234-3.297 0z"/><path d="m403.49 84.609c-1.049 1.87-2.596 3.417-4.466 4.466-.8.449-.8 1.622 0 2.071 1.87 1.049 3.417 2.596 4.466 4.466.449.8 1.622.8 2.071 0 1.049-1.87 2.596-3.417 4.466-4.466.8-.449.8-1.622 0-2.071-1.87-1.049-3.417-2.596-4.466-4.466-.449-.8-1.622-.8-2.071 0z"/><path d="m81.268 71.299c-2.089 4.156-5.466 7.533-9.622 9.622-1.209.608-1.209 2.311 0 2.919 4.156 2.089 7.533 5.466 9.622 9.622.608 1.209 2.311 1.209 2.919 0 2.089-4.156 5.466-7.533 9.622-9.622 1.209-.608 1.209-2.311 0-2.919-4.156-2.089-7.533-5.466-9.622-9.622-.608-1.209-2.311-1.209-2.919 0z"/><path d="m125.329 49.81c-1.673 3.328-4.377 6.033-7.706 7.706-.968.487-.968 1.851 0 2.338 3.328 1.673 6.033 4.377 7.706 7.706.487.968 1.851.968 2.338 0 1.673-3.328 4.377-6.033 7.706-7.706.968-.487.968-1.851 0-2.338-3.328-1.673-6.033-4.377-7.706-7.706-.487-.969-1.851-.969-2.338 0z"/><path d="m89.432 35.786c-.957 1.554-2.266 2.863-3.819 3.819-.963.593-.963 1.958 0 2.55 1.554.957 2.863 2.266 3.819 3.819.593.963 1.958.963 2.55 0 .957-1.554 2.266-2.863 3.819-3.819.963-.593.963-1.958 0-2.55-1.554-.957-2.863-2.266-3.819-3.819-.593-.963-1.958-.963-2.55 0z"/></g><g><path d="m6.817 61.98c-2.148 0-4.225-1.156-5.303-3.184-1.556-2.926-.445-6.559 2.481-8.115l56.568-30.077c2.927-1.557 6.559-.444 8.115 2.481 1.556 2.926.445 6.559-2.481 8.115l-56.568 30.077c-.898.477-1.862.703-2.812.703z" fill="#0091c8"/></g><g><path d="m505.674 62.057c-.95 0-1.914-.226-2.812-.703l-56.567-30.077c-2.926-1.556-4.037-5.189-2.481-8.115s5.189-4.037 8.114-2.481l56.567 30.077c2.926 1.556 4.037 5.189 2.481 8.115-1.077 2.028-3.154 3.184-5.302 3.184z" fill="#0091c8"/></g></g></svg>